<svg version="1.1" id="svg2" xmlns="http://www.w3.org/2000/svg" x="0" y="0" viewBox="0 0 2500 676.1" style="enable-background:new 0 0 2500 676.1" xml:space="preserve"><style>.st0{fill:#161312}</style><g id="layer1" transform="translate(-85.59 -376.905)"><g id="g3012" transform="matrix(1.25 0 0 -1.25 85.59 539.248)"><g id="g3014" transform="scale(.1)"><g id="g3016"><g id="g3018"><path id="path3024" class="st0" d="M3852.1-1016.2H2171.4c-43.4 0-78.5-35.2-78.5-78.6v-821.7c0-43.4 35.2-78.7 78.5-78.7H2827V-3016s-147.2-50.2-554.2-50.2c-480.2 0-1150.9 175.5-1150.9 1650.5 0 1475.3 698.5 1669.4 1354.2 1669.4 567.6 0 812.2-99.9 967.8-148.1 48.9-15 94.1 33.7 94.1 77.1l187.5 793.9c0 20.3-6.9 44.7-30 61.3-63.2 45.1-448.7 260.8-1422.6 260.8C1150.9 1298.8 0 821.4 0-1473.3S1317.6-4110 2428-4110c919.4 0 1477.1 392.9 1477.1 392.9 23 12.7 25.5 44.8 25.5 59.6v2562.7c0 43.4-35.2 78.6-78.5 78.6"/><path id="path3026" class="st0" d="M12513.4 1023.8c0 43.7-34.6 79-78 79h-946.3c-43.2 0-78.4-35.3-78.4-79l.3-1828.8H9936v1828.8c0 43.7-34.8 79-78.1 79h-946.3c-43.1 0-78.2-35.3-78.2-79V-3928c0-43.7 35.1-79.2 78.2-79.2h946.3c43.3 0 78.1 35.6 78.1 79.2v2118h1475l-2.6-2118c0-43.7 35.1-79.2 78.4-79.2h948.6c43.4 0 78 35.6 78.1 79.2v4951.8"/><path id="path3028" class="st0" d="M5637.8 374c0 340.7-273.2 616.1-610.2 616.1-336.7 0-610.1-275.4-610.1-616.1 0-340.4 273.4-616.5 610.1-616.5 337 0 610.2 276.1 610.2 616.5"/><path id="path3030" class="st0" d="M5570.1-2883.4v2285.8c0 43.4-35 78.9-78.3 78.9h-943.3c-43.3 0-82-44.6-82-88v-3274.8c0-96.3 60-124.9 137.6-124.9H5454c93.2 0 116.1 45.8 116.1 126.4v996.6"/><path id="path3032" class="st0" d="M16109.8-526.2h-939.1c-43.1 0-78.1-35.5-78.1-79.2v-2428s-238.5-174.5-577.2-174.5c-338.6 0-428.4 153.6-428.4 485.2v2117.4c0 43.7-35 79.2-78.1 79.2h-953.1c-43 0-78.3-35.5-78.3-79.2V-2883c0-984.8 548.8-1225.7 1303.9-1225.7 619.4 0 1118.8 342.2 1118.8 342.2s23.8-180.3 34.5-201.7c10.8-21.3 38.8-42.9 69.1-42.9l606.3 2.7c43 0 78.3 35.6 78.3 79l-.3 3324.1c.1 43.6-35 79.1-78.3 79.1"/><path id="path3034" class="st0" d="M18306-3205c-325.7 9.9-546.6 157.7-546.6 157.7v1568.1s218 133.6 485.4 157.5c338.2 30.3 664-71.9 664-878.5-.1-850.6-147.1-1018.5-602.8-1004.8zm370.4 2790c-533.4 0-896.1-238-896.1-238v1676.8c0 43.7-34.9 79-78.1 79h-949c-43.1 0-78.2-35.3-78.2-79V-3928c0-43.7 35.1-79.2 78.3-79.2h658.4c29.7 0 52.1 15.3 68.7 42.1 16.4 26.6 40 228.3 40 228.3s388.1-367.7 1122.6-367.7c862.4 0 1357 437.5 1357 1963.8 0 1526.2-789.9 1725.7-1323.6 1725.7"/><path id="path3036" class="st0" d="M8289.9-518.3H7580l-1.1 937.8c0 35.5-18.3 53.2-59.3 53.2h-967.3c-37.6 0-57.8-16.5-57.8-52.7v-969.1s-484.8-117-517.5-126.5c-32.6-9.5-56.7-39.6-56.7-75.5v-609c0-43.8 35-79.1 78.3-79.1h496v-1465c0-1088.2 763.3-1195.1 1278.4-1195.1 235.3 0 516.9 75.6 563.3 92.8 28.1 10.3 44.4 39.4 44.4 71l.8 669.9c0 43.7-36.9 79-78.5 79-41.4 0-147.2-16.8-256.1-16.8-348.7 0-466.8 162.1-466.8 372v1392.2H8290c43.3 0 78.3 35.3 78.3 79.1v762.8c-.1 43.8-35.2 79-78.4 79"/></g></g></g></g></g></svg>